<svg width="1024" height="1024" viewBox="0 0 1024 1024" fill="none" xmlns="http://www.w3.org/2000/svg">
<g clip-path="url(#clip0_35_3)">
<path d="M0 0C337.92 0 675.84 0 1024 0C1024 337.92 1024 675.84 1024 1024C686.08 1024 348.16 1024 0 1024C0 686.08 0 348.16 0 0Z" fill="#FDFEFE"/>
<path d="M327.076 158.86C328.761 158.857 330.446 158.854 332.131 158.851C336.724 158.843 341.317 158.841 345.91 158.84C350.878 158.838 355.846 158.831 360.814 158.824C371.659 158.81 382.505 158.804 393.35 158.8C400.131 158.797 406.911 158.793 413.692 158.788C432.493 158.776 451.294 158.766 470.095 158.762C471.296 158.762 472.497 158.762 473.735 158.762C474.939 158.762 476.143 158.761 477.383 158.761C479.822 158.761 482.262 158.76 484.701 158.76C485.911 158.76 487.121 158.759 488.368 158.759C507.97 158.755 527.571 158.738 547.173 158.714C567.333 158.691 587.493 158.678 607.653 158.677C618.958 158.676 630.263 158.67 641.568 158.652C651.194 158.637 660.82 158.632 670.447 158.64C675.35 158.644 680.254 158.643 685.158 158.629C730.639 158.505 730.639 158.505 750.25 165.25C751.162 165.553 752.074 165.856 753.014 166.168C776.211 174.045 796.345 186.045 814.438 202.562C814.987 203.063 815.537 203.563 816.104 204.079C818.538 206.365 819.927 207.78 821 211C821.99 211.33 822.98 211.66 824 212C825.375 213.42 825.375 213.42 826.785 215.254C827.311 215.935 827.837 216.616 828.378 217.318C829.212 218.429 829.212 218.429 830.062 219.562C830.64 220.328 831.217 221.093 831.811 221.881C844.354 238.727 854.276 256.699 860 277C860.319 278.105 860.319 278.105 860.644 279.233C866.105 298.94 865.721 318.666 865.654 338.927C865.642 344.013 865.66 349.099 865.674 354.185C865.696 364.116 865.691 374.048 865.677 383.979C865.665 392.059 865.664 400.14 865.669 408.22C865.67 409.953 865.67 409.953 865.671 411.721C865.673 414.068 865.675 416.416 865.676 418.763C865.69 440.718 865.674 462.672 865.647 484.626C865.625 503.414 865.629 522.201 865.652 540.989C865.679 562.869 865.689 584.75 865.674 606.63C865.672 608.969 865.671 611.307 865.669 613.646C865.668 615.372 865.668 615.372 865.667 617.132C865.662 625.191 865.67 633.249 865.682 641.308C865.696 651.146 865.692 660.984 865.665 670.822C865.652 675.83 865.647 680.837 865.663 685.845C865.82 737.087 854.137 781.539 817.25 819.062C801.987 834.209 783.762 845.631 764 854C763.24 854.325 762.481 854.651 761.698 854.986C755.829 857.431 750.003 859.198 743.812 860.625C742.982 860.829 742.151 861.032 741.295 861.242C727.696 864.444 714.411 865.296 700.511 865.261C698.793 865.264 697.076 865.268 695.359 865.272C690.68 865.282 686.002 865.28 681.324 865.276C676.262 865.274 671.201 865.283 666.139 865.29C656.24 865.303 646.341 865.305 636.441 865.302C628.391 865.301 620.342 865.302 612.292 865.307C611.144 865.307 609.996 865.308 608.814 865.308C606.481 865.31 604.149 865.311 601.817 865.312C579.972 865.323 558.127 865.321 536.281 865.315C516.318 865.309 496.355 865.321 476.391 865.34C455.865 865.359 435.339 865.367 414.813 865.364C403.3 865.362 391.788 865.364 380.275 865.378C370.475 865.39 360.676 865.392 350.877 865.379C345.882 865.374 340.888 865.372 335.894 865.384C331.312 865.395 326.731 865.392 322.15 865.378C320.502 865.376 318.854 865.378 317.206 865.386C306.432 865.435 296.534 864.342 286 862C285.057 861.797 284.113 861.593 283.141 861.384C271.079 858.734 260.053 854.456 249 849C247.826 848.421 246.651 847.842 245.441 847.246C209.335 828.564 179.821 795.11 167.117 756.303C165.484 751 163.98 745.665 162.595 740.292C162.225 738.866 161.839 737.443 161.429 736.028C158.247 724.655 158.851 712.533 158.853 700.823C158.85 699.102 158.846 697.382 158.842 695.662C158.832 690.962 158.828 686.261 158.825 681.561C158.821 676.481 158.812 671.401 158.803 666.321C158.783 654.07 158.773 641.818 158.764 629.566C158.76 623.787 158.755 618.007 158.749 612.228C158.732 593.002 158.718 573.776 158.711 554.549C158.709 549.568 158.707 544.586 158.705 539.604C158.704 538.366 158.704 537.128 158.703 535.853C158.695 515.801 158.67 495.75 158.637 475.699C158.604 455.082 158.586 434.466 158.583 413.849C158.581 402.286 158.572 390.723 158.547 379.16C158.525 369.312 158.517 359.465 158.526 349.617C158.531 344.6 158.529 339.583 158.51 334.566C158.369 296.191 158.369 296.191 163 280C163.413 278.409 163.413 278.409 163.833 276.786C164.469 274.38 165.196 272.042 166 269.687C166.287 268.84 166.574 267.993 166.87 267.121C172.68 250.833 181.319 235.569 192 222C192.726 221.054 193.452 220.108 194.199 219.133C218.564 188.25 256.552 164.786 296 160C306.366 159.03 316.675 158.853 327.076 158.86Z" fill="#0A80AB"/>
<path d="M424.287 271.853C425.931 271.842 425.931 271.842 427.609 271.831C428.812 271.828 430.015 271.826 431.255 271.823C433.155 271.813 433.155 271.813 435.094 271.803C439.297 271.782 443.5 271.772 447.703 271.762C449.151 271.758 450.6 271.754 452.048 271.749C458.853 271.73 465.658 271.716 472.463 271.708C480.312 271.698 488.16 271.672 496.008 271.631C502.079 271.601 508.149 271.586 514.22 271.583C517.844 271.581 521.467 271.572 525.091 271.547C529.137 271.519 533.182 271.523 537.228 271.53C539.02 271.511 539.02 271.511 540.849 271.491C547.468 271.533 551.645 271.995 557 276C560.3 279.554 561.267 282.26 561.438 287C561.179 292.734 559.771 296.362 555.5 300.312C551.664 302.902 548.833 303.116 544.312 303.062C543.319 303.053 542.325 303.044 541.301 303.035C540.162 303.018 540.162 303.018 539 303C539.014 321.29 539.056 339.58 539.132 357.87C539.167 366.363 539.192 374.857 539.196 383.35C539.199 390.758 539.219 398.166 539.261 405.574C539.282 409.492 539.295 413.41 539.286 417.328C539.279 421.026 539.295 424.723 539.328 428.421C539.34 430.404 539.328 432.388 539.314 434.371C539.46 445.947 543.351 455.383 548.75 465.461C549.085 466.09 549.419 466.719 549.764 467.367C550.835 469.374 551.917 471.375 553 473.375C553.763 474.797 554.525 476.22 555.287 477.643C560.074 486.554 564.993 495.384 570.025 504.159C575.677 514.067 580.972 524.163 586.266 534.266C586.617 534.933 586.968 535.599 587.329 536.287C588.286 538.105 589.239 539.926 590.192 541.746C591.975 545.066 591.975 545.066 594.228 548.299C596 551 596 551 596 553C595.091 553.268 594.182 553.536 593.246 553.812C577.42 558.747 564.54 566.167 552 577C550.879 577.967 550.879 577.967 549.734 578.953C533.493 594.138 523.133 615.374 519 637C518.74 638.151 518.74 638.151 518.474 639.325C513.888 665.21 520.102 693.87 534 716C536.192 719.112 538.448 722.148 540.789 725.148C542.457 727.3 544.062 729.461 545.638 731.678C546.082 732.302 546.526 732.926 546.984 733.569C547.319 734.041 547.655 734.513 548 735C520.827 735.117 493.653 735.205 466.48 735.259C453.862 735.285 441.245 735.32 428.627 735.377C417.627 735.427 406.626 735.459 395.626 735.47C389.804 735.477 383.982 735.492 378.16 735.529C372.674 735.563 367.188 735.573 361.702 735.566C359.694 735.567 357.687 735.577 355.679 735.596C339.55 735.743 327.423 733.13 315 722C306.77 713.067 303.712 702.306 303.5 690.375C303.481 689.707 303.463 689.039 303.444 688.351C303.569 678.332 308.556 669.454 313.375 660.938C314.446 659.01 315.516 657.081 316.586 655.152C317.423 653.65 317.423 653.65 318.276 652.117C321.233 646.771 324.113 641.384 327 636C334.531 621.993 342.117 608.016 349.812 594.098C350.308 593.201 350.308 593.201 350.814 592.286C353.599 587.249 353.599 587.249 354.897 584.903C360.418 574.919 365.857 564.895 371.22 554.825C374.49 548.709 377.891 542.693 381.433 536.73C382.959 534.072 384.344 531.38 385.688 528.625C388.39 523.121 391.296 517.748 394.25 512.375C399.691 502.462 405.018 492.492 410.312 482.5C410.692 481.784 411.072 481.069 411.464 480.332C413.994 475.564 416.508 470.788 419 466C419.338 465.351 419.677 464.703 420.025 464.034C420.997 462.162 421.959 460.285 422.918 458.406C423.466 457.337 424.014 456.268 424.579 455.166C428.208 447.08 428.304 439.97 428.319 431.17C428.328 429.77 428.338 428.37 428.349 426.97C428.376 423.186 428.392 419.401 428.405 415.616C428.42 411.655 428.447 407.694 428.473 403.733C428.519 396.239 428.556 388.745 428.589 381.252C428.628 372.717 428.677 364.183 428.727 355.648C428.831 338.099 428.92 320.549 429 303C428.11 303.031 427.22 303.062 426.303 303.094C425.135 303.119 423.966 303.143 422.762 303.168C421.604 303.199 420.446 303.23 419.253 303.262C415.059 302.924 413.061 301.641 410.234 298.633C407.021 294.382 406.553 290.437 406.684 285.211C407.357 280.503 410.16 277.758 413.562 274.688C417.21 272.162 419.961 271.872 424.287 271.853Z" fill="#FDFEFE"/>
<path d="M686.48 585.055C703.261 599.728 718.098 621.084 720 644C720.78 660.046 720.939 675.972 714.812 691.063C714.504 691.834 714.196 692.604 713.878 693.399C709.385 704.289 702.699 713.148 695 722C694.471 722.625 693.943 723.25 693.398 723.895C678.714 739.972 654.122 750.111 632.67 751.108C606.396 751.75 585.322 745.1 565 728C563.484 726.855 563.484 726.855 561.937 725.688C544.039 709.312 533.794 685.956 532.719 661.887C532.01 634.993 540.281 613.295 558 593C558.541 592.374 559.083 591.747 559.641 591.102C592.439 555.819 650.232 555.029 686.48 585.055Z" fill="#FDFDFD"/>
<path d="M668 617C671.633 618.696 673.945 620.738 676.75 623.625C677.549 624.442 678.348 625.26 679.172 626.102C679.775 626.728 680.378 627.355 681 628C679.391 632.004 676.58 634.702 673.572 637.687C673.019 638.243 672.466 638.8 671.896 639.373C670.071 641.207 668.239 643.033 666.406 644.859C665.136 646.131 663.865 647.404 662.595 648.676C659.935 651.339 657.272 653.998 654.606 656.655C651.182 660.067 647.768 663.488 644.356 666.912C641.737 669.539 639.112 672.161 636.486 674.781C635.225 676.041 633.965 677.303 632.706 678.566C630.952 680.326 629.191 682.079 627.428 683.831C626.905 684.358 626.382 684.884 625.844 685.427C622.229 689 622.229 689 620 689C619.505 690.485 619.505 690.485 619 692C617.706 693.372 616.377 694.712 615 696C611.773 694.581 609.627 692.871 607.149 690.376C606.409 689.636 605.668 688.895 604.906 688.132C603.723 686.934 603.723 686.934 602.516 685.711C601.7 684.893 600.884 684.074 600.044 683.231C597.441 680.617 594.846 677.996 592.25 675.375C590.486 673.601 588.722 671.828 586.957 670.055C582.633 665.708 578.314 661.356 574 657C574.961 655.875 575.924 654.75 576.886 653.625C577.421 652.998 577.957 652.372 578.509 651.726C580.881 648.98 583.345 646.474 586 644C586.66 644 587.32 644 588 644C589.399 645.418 589.399 645.418 591.043 647.41C595.23 652.333 599.734 656.881 604.312 661.438C605.123 662.252 605.933 663.066 606.768 663.904C607.542 664.677 608.316 665.45 609.113 666.246C609.812 666.944 610.511 667.642 611.232 668.361C612.914 670.074 612.914 670.074 615 671C615.21 670.465 615.42 669.93 615.636 669.378C617.529 666.077 620.134 663.601 622.82 660.949C623.398 660.372 623.975 659.795 624.57 659.201C625.794 657.98 627.019 656.763 628.247 655.547C630.103 653.71 631.95 651.864 633.797 650.018C639.12 644.711 644.447 639.485 650.171 634.608C653.781 631.434 657.123 627.98 660.5 624.562C661.227 623.831 661.954 623.099 662.703 622.346C664.471 620.566 666.237 618.784 668 617Z" fill="#0B719A"/>
<path d="M257 172C257 172.66 257 173.32 257 174C255.973 174.496 254.945 174.993 253.887 175.504C245.597 179.549 237.583 183.712 230 189C229.056 189.646 228.113 190.292 227.141 190.957C212.986 201.214 199.555 214.259 189.656 228.688C187.961 231.054 186.11 233.001 184 235C185.462 230.679 187.766 227.357 190.562 223.812C191.006 223.244 191.449 222.676 191.906 222.091C196.041 216.846 200.423 211.864 205 207C205.862 206.041 205.862 206.041 206.742 205.062C216.71 194.431 241.553 172 257 172Z" fill="#1FA8D1"/>
<path d="M175 249C175.33 249 175.66 249 176 249C176.364 253.242 175.539 255.582 173 259C172.34 259 171.68 259 171 259C172.109 255.513 173.263 252.225 175 249Z" fill="#20A2C9"/>
</g>
<defs>
<clipPath id="clip0_35_3">
<rect width="1024" height="1024" fill="white"/>
</clipPath>
</defs>
</svg>
